<?xml version="1.0" encoding="iso-8859-1"?>
<!-- Generator: Adobe Illustrator 19.0.0, SVG Export Plug-In . SVG Version: 6.00 Build 0)  -->
<svg version="1.1" id="Capa_1" xmlns="http://www.w3.org/2000/svg" xmlns:xlink="http://www.w3.org/1999/xlink" x="0px" y="0px"
	 viewBox="0 0 506.896 506.896" style="enable-background:new 0 0 506.896 506.896;" xml:space="preserve">
<path d="M102.029,506.896l151.419-119.662l151.419,119.662L347.03,313.279l151.418-119.662H311.285L253.448,0l-57.837,193.617H8.448
	l151.419,119.662L102.029,506.896z M145.225,241.138h50.386h35.4l10.132-33.92l12.304-41.187l12.304,41.187l10.132,33.92h35.4
	h50.387l-44.107,34.856l-25.297,19.992l9.228,30.894l14.764,49.422l-33.347-26.353l-29.465-23.286l-29.465,23.286l-33.347,26.353
	l14.764-49.422l9.229-30.894l-25.298-19.992L145.225,241.138z"/>
<g>
</g>
<g>
</g>
<g>
</g>
<g>
</g>
<g>
</g>
<g>
</g>
<g>
</g>
<g>
</g>
<g>
</g>
<g>
</g>
<g>
</g>
<g>
</g>
<g>
</g>
<g>
</g>
<g>
</g>
</svg>
