<?xml version="1.0" encoding="iso-8859-1"?>
<!-- Generator: Adobe Illustrator 19.0.0, SVG Export Plug-In . SVG Version: 6.00 Build 0)  -->
<svg version="1.1" id="Capa_1" xmlns="http://www.w3.org/2000/svg" xmlns:xlink="http://www.w3.org/1999/xlink" x="0px" y="0px"
	 viewBox="0 0 490 490" style="enable-background:new 0 0 490 490;" xml:space="preserve">
<g>
	<path d="M245,0C109.914,0,0,109.914,0,245s109.914,245,245,245s245-109.914,245-245S380.086,0,245,0z M245,460.303
		c-118.715,0-215.303-96.588-215.303-215.303S126.285,29.697,245,29.697S460.303,126.285,460.303,245S363.715,460.303,245,460.303z"
		/>
	<path d="M244.996,75.446c-93.641,0-169.552,75.911-169.552,169.552c0,93.64,75.911,169.552,169.552,169.552
		s169.552-75.912,169.552-169.552C414.549,151.357,338.638,75.446,244.996,75.446z M244.996,352.778
		c-59.525,0-107.78-48.255-107.78-107.78c0-59.525,48.255-107.78,107.78-107.78c59.525,0,107.78,48.255,107.78,107.78
		C352.777,304.523,304.522,352.778,244.996,352.778z"/>
	<circle cx="244.996" cy="244.998" r="44.626"/>
</g>
<g>
</g>
<g>
</g>
<g>
</g>
<g>
</g>
<g>
</g>
<g>
</g>
<g>
</g>
<g>
</g>
<g>
</g>
<g>
</g>
<g>
</g>
<g>
</g>
<g>
</g>
<g>
</g>
<g>
</g>
</svg>
