<?xml version="1.0" encoding="iso-8859-1"?>
<!-- Generator: Adobe Illustrator 19.0.0, SVG Export Plug-In . SVG Version: 6.00 Build 0)  -->
<svg version="1.1" id="Capa_1" xmlns="http://www.w3.org/2000/svg" xmlns:xlink="http://www.w3.org/1999/xlink" x="0px" y="0px"
	 viewBox="0 0 490 490" style="enable-background:new 0 0 490 490;" xml:space="preserve">
<g>
	<path d="M413.438,0H76.563C34.453,0,0,34.453,0,76.563v336.875C0,455.547,34.453,490,76.563,490h336.875
		C455.547,490,490,455.547,490,413.438V76.563C490,34.453,455.547,0,413.438,0z M459.375,413.438
		c0,25.33-20.607,45.937-45.938,45.937H76.563c-25.331,0-45.938-20.607-45.938-45.937V76.563c0-25.33,20.607-45.938,45.938-45.938
		h336.875c25.331,0,45.938,20.608,45.938,45.938V413.438z"/>
	<rect x="139.587" y="139.587" width="210.825" height="210.825"/>
</g>
<g>
</g>
<g>
</g>
<g>
</g>
<g>
</g>
<g>
</g>
<g>
</g>
<g>
</g>
<g>
</g>
<g>
</g>
<g>
</g>
<g>
</g>
<g>
</g>
<g>
</g>
<g>
</g>
<g>
</g>
</svg>
